# xmcd
#
# Track frame offsets: 
#        150
#        18478
#        38046
#        59122
#        78771
#        100520
#        113877
#        133079
#        145956
#        164330
#
# Disc length: 2461 seconds
#
# Revision: 2
# Processed by: cddbd v1.5.2PL0 Copyright (c) Steve Scherf et al.
# Submitted via: ExactAudioCopy v0.99pb5
#
DISCID=82099b0a
DTITLE=Rayna Gellert - Old Light: Songs from My Childhood and Other Gone
DTITLE=Worlds
DYEAR=2012
DGENRE=Folk
TTITLE0=Nothing
TTITLE1=In the Ocean
TTITLE2=The Platform
TTITLE3=1845
TTITLE4=The Cruel Mother
TTITLE5=The Stars
TTITLE6=The Fatal Flower Garden
TTITLE7=Old Bangum
TTITLE8=Fly to Me
TTITLE9=Lamplighting Time
EXTD=
EXTT0=
EXTT1=
EXTT2=
EXTT3=
EXTT4=
EXTT5=
EXTT6=
EXTT7=
EXTT8=
EXTT9=
PLAYORDER=
